<?xml version="1.0"?>
<svg xmlns="http://www.w3.org/2000/svg" xmlns:xlink="http://www.w3.org/1999/xlink" version="1.1" id="Capa_1" x="0px" y="0px" width="512px" height="512px" viewBox="0 0 36.449 36.448" style="enable-background:new 0 0 36.449 36.448;" xml:space="preserve"><g><g>
	<g>
		<path d="M30.224,3.948h-1.098V2.75c0-1.517-1.197-2.75-2.67-2.75c-1.474,0-2.67,1.233-2.67,2.75v1.197h-2.74V2.75    c0-1.517-1.197-2.75-2.67-2.75c-1.473,0-2.67,1.233-2.67,2.75v1.197h-2.74V2.75c0-1.517-1.197-2.75-2.67-2.75    c-1.473,0-2.67,1.233-2.67,2.75v1.197H6.224c-2.343,0-4.25,1.907-4.25,4.25v7h32.5v-7C34.474,5.855,32.568,3.948,30.224,3.948z     M11.466,7.646c0,0.689-0.525,1.25-1.17,1.25s-1.17-0.561-1.17-1.25V2.75c0-0.689,0.525-1.25,1.17-1.25s1.17,0.561,1.17,1.25    V7.646z M19.546,7.646c0,0.689-0.525,1.25-1.17,1.25s-1.17-0.561-1.17-1.25V2.75c0-0.689,0.525-1.25,1.17-1.25    s1.17,0.561,1.17,1.25V7.646z M27.626,7.646c0,0.689-0.525,1.25-1.17,1.25c-0.646,0-1.17-0.561-1.17-1.25V2.75    c0-0.689,0.524-1.25,1.17-1.25c0.645,0,1.17,0.561,1.17,1.25V7.646z" data-original="#000000" class="active-path" data-old_color="#000000" fill="#D83F3F"/>
		<path d="M1.974,32.198c0,2.343,1.907,4.25,4.25,4.25h24c2.344,0,4.25-1.907,4.25-4.25V17.099h-32.5V32.198z M3.974,19.1h28.5    v13.099c0,1.239-1.009,2.25-2.25,2.25h-24c-1.241,0-2.25-1.011-2.25-2.25V19.1z" data-original="#000000" class="active-path" data-old_color="#000000" fill="#D83F3F"/>
		<rect x="25.128" y="21.814" width="4.596" height="2.726" data-original="#000000" class="active-path" data-old_color="#000000" fill="#D83F3F"/>
		<rect x="25.128" y="25.452" width="4.596" height="2.726" data-original="#000000" class="active-path" data-old_color="#000000" fill="#D83F3F"/>
		<rect x="25.128" y="29.09" width="4.596" height="2.725" data-original="#000000" class="active-path" data-old_color="#000000" fill="#D83F3F"/>
		<rect x="18.996" y="21.814" width="4.595" height="2.726" data-original="#000000" class="active-path" data-old_color="#000000" fill="#D83F3F"/>
		<rect x="18.996" y="25.452" width="4.595" height="2.726" data-original="#000000" class="active-path" data-old_color="#000000" fill="#D83F3F"/>
		<rect x="18.996" y="29.09" width="4.595" height="2.725" data-original="#000000" class="active-path" data-old_color="#000000" fill="#D83F3F"/>
		<rect x="12.859" y="21.814" width="4.596" height="2.726" data-original="#000000" class="active-path" data-old_color="#000000" fill="#D83F3F"/>
		<rect x="12.859" y="25.452" width="4.596" height="2.726" data-original="#000000" class="active-path" data-old_color="#000000" fill="#D83F3F"/>
		<rect x="12.859" y="29.09" width="4.596" height="2.725" data-original="#000000" class="active-path" data-old_color="#000000" fill="#D83F3F"/>
		<rect x="6.724" y="25.452" width="4.596" height="2.726" data-original="#000000" class="active-path" data-old_color="#000000" fill="#D83F3F"/>
		<rect x="6.724" y="29.09" width="4.596" height="2.725" data-original="#000000" class="active-path" data-old_color="#000000" fill="#D83F3F"/>
	</g>
</g></g> </svg>
